<?xml version="1.0" encoding="utf-8"?>
<!-- Generator: Adobe Illustrator 16.0.0, SVG Export Plug-In . SVG Version: 6.00 Build 0)  -->
<!DOCTYPE svg PUBLIC "-//W3C//DTD SVG 1.1//EN" "http://www.w3.org/Graphics/SVG/1.1/DTD/svg11.dtd">
<svg version="1.1" id="Layer_2" xmlns="http://www.w3.org/2000/svg" xmlns:xlink="http://www.w3.org/1999/xlink" x="0px" y="0px"
	 width="502.171px" height="503px" viewBox="0 0 502.171 503" enable-background="new 0 0 502.171 503" xml:space="preserve">
<path d="M210.126,449.93c-12.152-2.471-24.068-6.053-35.666-10.756c-25.107-10.181-47.642-25.148-66.979-44.485
	c-19.337-19.336-34.303-41.87-44.484-66.977c-9.838-24.261-14.826-49.901-14.826-76.211s4.988-51.951,14.826-76.211
	c10.181-25.107,25.148-47.642,44.485-66.979c19.337-19.336,41.871-34.303,66.979-44.484c17.768-7.206,36.277-11.797,55.246-13.745
	c-24.982,15.417-46.662,35.436-63.799,59.304c-41.315,57.541-56.543,126.66-42.879,194.624
	c6.917,34.406,20.824,66.653,41.333,95.844C177.376,418.377,192.697,435.118,210.126,449.93z M298.83,402.576
	c-33.459-12.381-63.219-31.026-88.453-55.418c-35.648-34.461-59.46-77.805-69.649-125.607c-3.932,25.79-3.372,52.25,1.909,78.516
	c6.368,31.674,19.184,61.379,38.09,88.289c18.07,25.719,40.973,47.758,68.133,65.623c0.605,0.005,1.207,0.021,1.812,0.021
	c26.311,0,51.951-4.988,76.211-14.826c13.904-5.639,27.018-12.751,39.238-21.256C342.945,415.685,320.429,410.568,298.83,402.576z
	 M502.171,251.5c0,138.899-112.6,251.5-251.5,251.5c-138.9,0-251.5-112.601-251.5-251.5S111.771,0,250.671,0
	C389.572,0,502.171,112.601,502.171,251.5z M408.003,94.169C364.556,50.723,307.615,29,250.671,29S136.786,50.723,93.34,94.169
	c-86.892,86.893-86.892,227.771,0,314.662C136.785,452.277,193.728,474,250.671,474s113.885-21.723,157.332-65.169
	C494.894,321.939,494.894,181.062,408.003,94.169z M391.55,324.274c-32.412,14.905-66.639,22.764-101.729,23.358
	c-1.422,0.024-2.852,0.036-4.27,0.036c-17.199,0-34.129-1.773-50.605-5.225c20.814,17.762,44.572,31.661,70.822,41.374
	c26.475,9.797,54.469,14.932,83.441,15.36c1.568-1.473,3.123-2.963,4.65-4.49c19.336-19.336,34.303-41.871,44.484-66.978
	c5.277-13.014,9.146-26.429,11.611-40.128C431.998,302.378,412.462,314.659,391.55,324.274z M438.345,175.29
	c-2.117-5.22-4.453-10.322-6.98-15.315c0.965,13.701,0.877,27.413-0.281,41.083c-2.816,33.233-11.773,64.809-26.639,93.965
	c17.455-10.207,33.715-22.594,48.613-37.059c0.068-2.15,0.113-4.305,0.113-6.465C453.171,225.191,448.183,199.55,438.345,175.29z"/>
</svg>
