<?xml version="1.0" encoding="utf-8"?>
<!-- Generator: Adobe Illustrator 16.0.0, SVG Export Plug-In . SVG Version: 6.00 Build 0)  -->
<!DOCTYPE svg PUBLIC "-//W3C//DTD SVG 1.1//EN" "http://www.w3.org/Graphics/SVG/1.1/DTD/svg11.dtd">
<svg version="1.1" id="Layer_1" xmlns="http://www.w3.org/2000/svg" xmlns:xlink="http://www.w3.org/1999/xlink" x="0px" y="0px"
	 width="509.5px" height="461.5px" viewBox="7 0 509.5 461.5" enable-background="new 7 0 509.5 461.5" xml:space="preserve">
<rect x="217.997" y="22.991" transform="matrix(-0.7071 0.7071 -0.7071 -0.7071 450.8706 -30.5883)" fill="#FFFFFF" width="27.546" height="110.183"/>
<rect x="235.113" y="64.31" transform="matrix(-0.7071 0.7071 -0.7071 -0.7071 550.6224 -71.9093)" fill="#FFFFFF" width="110.182" height="27.547"/>
<rect x="92.341" y="206.261" transform="matrix(0.7071 0.7071 -0.7071 0.7071 215.8874 1.5156)" fill="#FFFFFF" width="27.546" height="110.182"/>
<rect x="51.02" y="189.135" transform="matrix(0.7071 0.7071 -0.7071 0.7071 174.5577 -15.6018)" fill="#FFFFFF" width="110.183" height="27.547"/>
<rect x="278.601" y="331.078" transform="matrix(0.7071 -0.7071 0.7071 0.7071 -187.4282 319.8463)" fill="#FFFFFF" width="27.547" height="110.182"/>
<rect x="178.851" y="372.397" transform="matrix(0.7071 -0.7071 0.7071 0.7071 -204.5435 278.5303)" fill="#FFFFFF" width="110.184" height="27.547"/>
<rect x="407.434" y="147.804" transform="matrix(-0.7071 -0.7071 0.7071 -0.7071 575.5797 644.1996)" fill="#FFFFFF" width="27.544" height="110.183"/>
<rect x="366.111" y="247.566" transform="matrix(-0.7071 -0.7071 0.7071 -0.7071 534.2419 743.9666)" fill="#FFFFFF" width="110.182" height="27.544"/>
</svg>
