<?xml version="1.0" encoding="utf-8"?>
<!-- Generator: Adobe Illustrator 16.0.0, SVG Export Plug-In . SVG Version: 6.00 Build 0)  -->
<!DOCTYPE svg PUBLIC "-//W3C//DTD SVG 1.1//EN" "http://www.w3.org/Graphics/SVG/1.1/DTD/svg11.dtd">
<svg version="1.1" id="Layer_1" xmlns="http://www.w3.org/2000/svg" xmlns:xlink="http://www.w3.org/1999/xlink" x="0px" y="0px"
	 width="500.5px" height="489.5px" viewBox="0 0 500.5 489.5" enable-background="new 0 0 500.5 489.5" xml:space="preserve">
<rect x="205.646" y="1.753" transform="matrix(-0.7071 -0.7071 0.7071 -0.7071 334.382 252.1901)" fill="#FFFFFF" width="27.546" height="110.183"/>
<rect x="222.763" y="43.071" transform="matrix(-0.7071 -0.7071 0.7071 -0.7071 434.1307 293.5113)" fill="#FFFFFF" width="110.182" height="27.547"/>
<rect x="51.988" y="216.023" transform="matrix(-0.7071 0.7071 -0.7071 -0.7071 303.9689 416.3214)" fill="#FFFFFF" width="27.547" height="110.183"/>
<rect x="10.673" y="198.897" transform="matrix(-0.7071 0.7071 -0.7071 -0.7071 262.6468 316.548)" fill="#FFFFFF" width="110.183" height="27.547"/>
<rect x="266.251" y="371.841" transform="matrix(0.7071 0.7071 -0.7071 0.7071 383.9037 -72.9613)" fill="#FFFFFF" width="27.547" height="110.183"/>
<rect x="166.5" y="413.158" transform="matrix(0.7071 0.7071 -0.7071 0.7071 366.7905 -31.6434)" fill="#FFFFFF" width="110.184" height="27.547"/>
<rect x="422.078" y="157.566" transform="matrix(0.7071 -0.7071 0.7071 0.7071 -22.714 370.4785)" fill="#FFFFFF" width="27.544" height="110.183"/>
<rect x="380.763" y="257.327" transform="matrix(0.7071 -0.7071 0.7071 0.7071 -64.0382 387.5971)" fill="#FFFFFF" width="110.183" height="27.545"/>
</svg>
