<?xml version="1.0" encoding="utf-8"?>
<!-- Generator: Adobe Illustrator 16.0.0, SVG Export Plug-In . SVG Version: 6.00 Build 0)  -->
<!DOCTYPE svg PUBLIC "-//W3C//DTD SVG 1.1//EN" "http://www.w3.org/Graphics/SVG/1.1/DTD/svg11.dtd">
<svg version="1.1" id="Layer_1" xmlns="http://www.w3.org/2000/svg" xmlns:xlink="http://www.w3.org/1999/xlink" x="0px" y="0px"
	 width="933px" height="622px" viewBox="0 0 933 622" enable-background="new 0 0 933 622" xml:space="preserve">
<path fill="#FFFFFF" d="M726,248h-1v1h-1l0,0v1l0,0l0,0h-1l0,0v1h-1l0,0v1h-2h-1v-1l1-1v-1v-1h1l0,0v-1h1l0,0v-1l0,0l0,0l1-1l1-1
	l0,0l0,0v-1c0,0,1-0.667,3-2c1.333-2,4.667-4.333,10-7s11-4,17-4c6.667,0,12,1,16,3c4.667,2,9.667,5,15,9c4.667,4,9.333,9,14,15
	s8,12.333,10,19c2,7.333,3,14.667,3,22c0,8-1,15.333-3,22c-2,7.333-5.667,14.667-11,22c-4,7.333-8.667,13.333-14,18
	s-12.333,9.333-21,14c-8.667,5.333-18.667,9.333-30,12c-11.333,4-23.667,6.667-37,8c-12.667,1.333-27.333,1.333-44,0
	c-17.333,0-35.333-2-54-6s-36-8.667-52-14s-30-11.333-42-18c-11.333-6.667-20-12.667-26-18c-6.667-5.333-10.667-8.333-12-9
	s-3.333,0-6,2c-2,2-7.333,6.333-16,13s-19,12.667-31,18s-26.333,10.667-43,16c-16,5.333-34,9.667-54,13s-36.667,5.333-50,6
	c-12.667,0.667-22,0.333-28-1c-6,0-15.333-1.667-28-5c-13.333-3.333-24.667-7-34-11c-8.667-4-16-8-22-12c-6-5.333-11.333-11-16-17
	c-5.333-6.667-9.333-14-12-22s-4.333-16.333-5-25c-0.667-8-0.333-14.667,1-20c1.333-4.667,3.333-10.333,6-17c4-6.667,7-11,9-13
	c2.667-2.667,4-4.333,4-5s0.667-1.333,2-2s5-2.667,11-6s12.667-5,20-5c8,0,14.667,1,20,3l8,3v1l0,0h1v1l0,0h1l0,0l0,0l1,1l1,1l0,0
	l0,0h1l0,0v1h1v1v1h-2l-3-1h-1h-1v-1h-1l0,0v-1h-4c-2-1.333-5.667-1.667-11-1s-10,2.333-14,5c-3.333,3.333-6.333,7.333-9,12
	s-4,11.333-4,20c0,9.333,1.333,15.667,4,19c2,3.333,4.667,6,8,8s8,3,14,3c6.667,0,14.667-2,24-6c10-4,22.667-10.333,38-19
	c16-8.667,31.667-17.667,47-27c16-9.333,29.667-16.667,41-22c12-5.333,22-8.667,30-10c8.667-2.667,18.333-3.667,29-3s21,2.333,31,5
	c10,4,18.667,8.333,26,13c8,4.667,12.333,7.333,13,8s4.667-1.667,12-7s16-9.333,26-12c10-4,17.333-6,22-6c4.667-1.333,13-1.667,25-1
	s22.667,2,32,4c8.667,2,19.333,6.333,32,13s31,18,55,34s40.333,25.333,49,28c8,4,15.667,6,23,6s13.667-1.333,19-4s9.333-5.333,12-8
	c2.667-3.333,4-9,4-17s-1.333-14.333-4-19s-5.667-8.667-9-12c-3.333-2.667-6.333-4.667-9-6c-3.333-1.333-7.333-2-12-2
	c-4,0-7.333,1-10,3C728,247,726.667,248,726,248z"/>
</svg>
